# xmcd CD database file
# Copyright (C) 1997 Ti Kan
# 
# Track frame offsets:
#     150
#     15415
#     31830
#     46540
#     60123
#     72213
#     91015
#     103753
#     118870
#     128725
#     142793
#     159573
#     173725
#     187020
#     204800
# 
# Disc length: 2910 seconds
# 
# Revision: 1
# Processed by: cddbd v1.4PL0 Copyright (c) Steve Scherf et al.
# Submitted via: DiscPlay 4.0.3
# 
DISCID=af0b5c0f
DTITLE=Anne Murray - Fifteen Of The Best
DYEAR=1900
DGENRE=
TTITLE0=Shadows In The Moonlight
TTITLE1=You Needed Me
TTITLE2=Could I Have This Dance
TTITLE3=Feed This Fire
TTITLE4=Blessed Are The Believers
TTITLE5=I Can See Arkansas
TTITLE6=I Just Fall In Love Again
TTITLE7=New Way Out
TTITLE8=Snowbird
TTITLE9=Danny's Song
TTITLE10=Even The Nights Are Better
TTITLE11=A Little Good News
TTITLE12=Just Another Woman In Love
TTITLE13=Broken Hearted Me
TTITLE14=Oh Yes I Do
EXTD=
EXTT0=
EXTT1=
EXTT2=
EXTT3=
EXTT4=
EXTT5=
EXTT6=
EXTT7=
EXTT8=
EXTT9=
EXTT10=
EXTT11=
EXTT12=
EXTT13=
EXTT14=
PLAYORDER=
